<?xml version="1.0" encoding="UTF-8" standalone="no"?><!-- Generator: Gravit.io --><svg xmlns="http://www.w3.org/2000/svg" xmlns:xlink="http://www.w3.org/1999/xlink" style="isolation:isolate" viewBox="0 0 2500 2500" width="2500pt" height="2500pt"><defs><clipPath id="_clipPath_LTKi0XFymEsCEq6oz3fUxio88PyTib1I"><rect width="2500" height="2500"/></clipPath></defs><g clip-path="url(#_clipPath_LTKi0XFymEsCEq6oz3fUxio88PyTib1I)"><path d=" M 0 0.011 L 2500 0.011 L 2500 2500.006 L 0 2500.006 L 0 0.011 Z " fill="none"/><path d=" M 2153.889 2259.75 L 1249.993 2503.134 L 346.084 2259.75 L 137.5 0.011 L 2362.5 0.011 L 2153.889 2259.75 Z " fill="rgb(32,98,175)"/><path d=" M 1249.987 183.046 L 1249.987 2309.016 L 1252.031 2309.574 L 1983.515 2112.603 L 2152.356 183.046 L 1249.987 183.046 L 1249.987 183.046 Z " fill="rgb(60,156,215)"/><path d=" M 1249.184 748.072 L 602.236 1017.509 L 623.69 1284.272 L 1249.184 1016.832 L 1914.547 732.358 L 1942.133 459.471 L 1249.184 748.072 Z " fill="rgb(255,255,255)"/><linearGradient id="_lgradient_0" x1="0.5" y1="1.0000123760844555" x2="0.5000000000000001" y2="0.00001237608445325833" gradientTransform="matrix(646.948,0,0,536.199,602.229,748.072)" gradientUnits="userSpaceOnUse"><stop offset="38.7%" stop-opacity="0" style="stop-color:rgb(209,211,212)"/><stop offset="100%" stop-opacity="1" style="stop-color:rgb(209,211,212)"/></linearGradient><path d=" M 602.229 1017.509 L 623.683 1284.272 L 1249.177 1016.832 L 1249.177 748.072 L 602.229 1017.509 L 602.229 1017.509 Z " fill="url(#_lgradient_0)"/><linearGradient id="_lgradient_1" x1="0.4999904234739807" y1="1.0000119063210646" x2="0.49999042347398076" y2="0.000011906321067289838" gradientTransform="matrix(692.949,0,0,557.355,1249.184,459.477)" gradientUnits="userSpaceOnUse"><stop offset="38.7%" stop-opacity="0" style="stop-color:rgb(209,211,212)"/><stop offset="100%" stop-opacity="1" style="stop-color:rgb(209,211,212)"/></linearGradient><path d=" M 1942.133 459.477 L 1249.184 748.072 L 1249.184 1016.832 L 1914.547 732.358 L 1942.133 459.477 Z " fill="url(#_lgradient_1)"/><linearGradient id="_lgradient_2" x1="5.551115123125783e-16" y1="0.5000065584952196" x2="0.9999948470873167" y2="0.5000065584952196" gradientTransform="matrix(1287.824,0,0,1011.825,603.224,1017.509)" gradientUnits="userSpaceOnUse"><stop offset="0%" stop-opacity="1" style="stop-color:rgb(232,231,229)"/><stop offset="100%" stop-opacity="1" style="stop-color:rgb(255,255,255)"/></linearGradient><path d=" M 603.224 1017.509 L 624.685 1284.272 L 1584.424 1287.331 L 1562.956 1643.01 L 1247.147 1731.919 L 943.561 1655.266 L 925.166 1434.498 L 643.08 1434.498 L 679.877 1860.698 L 1250.212 2029.334 L 1817.455 1863.758 L 1891.049 1017.509 L 603.224 1017.509 L 603.224 1017.509 Z " fill="url(#_lgradient_2)"/><g opacity="0.05"><path d=" M 1249.184 1017.509 L 602.236 1017.509 L 623.69 1284.272 L 1249.184 1286.269 L 1249.184 1017.509 Z  M 1249.184 1731.07 L 1246.118 1731.926 L 942.572 1655.273 L 924.177 1434.505 L 642.098 1434.505 L 678.889 1860.705 L 1249.184 2029.34 L 1249.184 1731.07 Z " fill="rgb(0,0,0)"/></g><linearGradient id="_lgradient_3" x1="2.220446049250313e-16" y1="0.5000000000000018" x2="0.9999952537353107" y2="0.5000000000000018" gradientTransform="matrix(1398.162,0,0,272.888,543.971,459.477)" gradientUnits="userSpaceOnUse"><stop offset="0%" stop-opacity="1" style="stop-color:rgb(232,231,229)"/><stop offset="100%" stop-opacity="1" style="stop-color:rgb(255,255,255)"/></linearGradient><path d=" M 543.971 459.477 L 1942.133 459.477 L 1914.547 732.365 L 577.696 732.365 L 543.971 459.477 L 543.971 459.477 Z " fill="url(#_lgradient_3)"/><g opacity="0.05"><path d=" M 1249.184 459.477 L 543.971 459.477 L 577.696 732.365 L 1249.184 732.365 L 1249.184 459.477 L 1249.184 459.477 Z " fill="rgb(0,0,0)"/></g></g></svg>