<?xml version="1.0" encoding="UTF-8" standalone="no"?>
<svg
   xmlns:dc="http://purl.org/dc/elements/1.1/"
   xmlns:cc="http://creativecommons.org/ns#"
   xmlns:rdf="http://www.w3.org/1999/02/22-rdf-syntax-ns#"
   xmlns:svg="http://www.w3.org/2000/svg"
   xmlns="http://www.w3.org/2000/svg"
   viewBox="0 0 341.23999 341.23999"
   height="341.23999"
   width="341.23999"
   xml:space="preserve"
   id="svg2"
   version="1.1"><metadata
     id="metadata8"><rdf:RDF><cc:Work
         rdf:about=""><dc:format>image/svg+xml</dc:format><dc:type
           rdf:resource="http://purl.org/dc/dcmitype/StillImage" /></cc:Work></rdf:RDF></metadata><defs
     id="defs6" /><g
     transform="matrix(1.3333333,0,0,-1.3333333,0,341.24)"
     id="g10"><g
       transform="scale(0.1)"
       id="g12"><path
         id="path14"
         style="fill:#5f247b;fill-opacity:1;fill-rule:nonzero;stroke:none"
         d="M 2559.35,0 H 0 V 2559.35 H 2559.35 V 0" /><path
         id="path16"
         style="fill:#ffffff;fill-opacity:1;fill-rule:nonzero;stroke:none"
         d="m 1647.05,1581.37 c 13.13,11.58 19.68,26.06 19.68,43.6 0,15.93 -5.28,29.02 -15.73,39.28 -8.03,8.14 -21.23,16.09 -39.51,23.71 -16.27,6.93 -27.07,12.9 -32.16,17.79 -5.69,5.26 -8.59,12.64 -8.59,22.11 0,8.79 3.45,15.95 10.3,21.58 6.79,5.52 15.93,8.31 27.27,8.31 18.32,0 34.48,-5.05 48.57,-15.26 v 34.53 c -13.52,6.69 -28.73,10.02 -45.77,10.02 -22.2,0 -40.28,-5.88 -54.4,-17.74 -14.01,-11.77 -21.11,-26.57 -21.11,-44.3 0,-15.88 4.54,-28.79 13.6,-38.7 7.51,-8.36 20.3,-16.41 38.24,-24.28 17.39,-7.64 29.12,-14.19 35.13,-19.65 6.04,-5.39 9.02,-12.31 9.02,-20.67 0,-19.92 -13.59,-29.92 -40.75,-29.92 -20.33,0 -38.85,6.86 -55.66,20.51 v -36.85 c 15.1,-8.63 32.85,-12.89 53.15,-12.89 24.71,0 44.39,6.27 58.72,18.82" /><path
         id="path18"
         style="fill:#ffffff;fill-opacity:1;fill-rule:nonzero;stroke:none"
         d="m 1969.43,1567.68 h 34.28 v 185.09 h 50.2 v 29.04 h -50.2 v 33 c 0,30.25 11.93,45.37 35.91,45.37 8.52,0 16.04,-1.9 22.78,-5.63 v 30.95 c -6,2.46 -14.26,3.72 -24.83,3.72 -18.29,0 -33.66,-5.76 -46.25,-17.34 -14.69,-13.34 -21.89,-31.82 -21.89,-55.36 v -34.71 h -36.41 v -29.04 h 36.41 v -185.09" /><path
         id="path20"
         style="fill:#ffffff;fill-opacity:1;fill-rule:nonzero;stroke:none"
         d="m 876.77,1836.16 c 6.277,0 11.621,2.15 15.964,6.5 4.371,4.3 6.59,9.58 6.59,15.88 0,6.19 -2.219,11.47 -6.59,15.77 -4.343,4.26 -9.687,6.36 -15.964,6.36 -6.125,0 -11.422,-2.1 -15.801,-6.36 -4.332,-4.3 -6.508,-9.58 -6.508,-15.77 0,-6.58 2.176,-11.91 6.508,-16.1 4.379,-4.18 9.676,-6.28 15.801,-6.28" /><path
         id="path22"
         style="fill:#ffffff;fill-opacity:1;fill-rule:nonzero;stroke:none"
         d="m 1048.44,1562.55 c 22.63,0 42.23,4.99 58.65,15.06 v 32.58 c -16.42,-12.3 -33.93,-18.41 -52.68,-18.41 -22.16,0 -39.75,7.23 -52.95,21.74 -13.171,14.55 -19.8,34.22 -19.8,59.17 0,25.92 7.289,46.73 21.59,62.25 13.74,15.19 31.48,22.81 53.28,22.81 18.14,0 35.07,-5.54 51.03,-16.77 v 35.18 c -14.41,7.2 -30.91,10.88 -49.55,10.88 -34,0 -61.084,-10.81 -81.194,-32.41 -20.211,-21.59 -30.25,-49.98 -30.25,-85.02 0,-31.28 9.223,-56.81 27.582,-76.55 18.872,-20.34 43.582,-30.51 74.292,-30.51" /><path
         id="path24"
         style="fill:#ffffff;fill-opacity:1;fill-rule:nonzero;stroke:none"
         d="m 2267.19,1798.08 h 9.02 c 6.28,0 10.73,-1.08 13.36,-3.18 2.34,-1.97 3.49,-4.91 3.49,-9.09 0,-8.29 -4.96,-12.44 -15,-12.44 h -10.87 z m 0,-33.39 h 6.66 c 4.69,0 8.98,-4.33 12.98,-13.09 l 7.89,-17.39 h 12.36 l -9.52,19.32 c -3.95,7.98 -7.99,12.44 -12.01,13.41 v 0.27 c 5.81,1.24 10.38,3.59 13.56,7.13 3.25,3.48 4.87,7.7 4.87,12.7 0,5.63 -2.01,10.15 -5.96,13.68 -4.68,4.09 -11.51,6.08 -20.61,6.08 H 2257 v -72.59 h 10.19 v 30.48" /><path
         id="path26"
         style="fill:#ffffff;fill-opacity:1;fill-rule:nonzero;stroke:none"
         d="m 2109.42,1626.1 c 0,-42.09 18.67,-63.18 56.06,-63.18 13.32,0 24.07,2.29 32.18,6.94 v 29.25 c -6.28,-4.61 -13.64,-6.94 -22.16,-6.94 -11.43,0 -19.53,3.03 -24.48,9.18 -4.92,5.95 -7.28,16.24 -7.28,30.61 v 120.81 h 53.92 v 29.04 h -53.92 v 63.37 c -12.01,-3.91 -23.4,-7.66 -34.32,-11.1 v -52.27 h -36.76 v -29.04 h 36.76 V 1626.1" /><path
         id="path28"
         style="fill:#ffffff;fill-opacity:1;fill-rule:nonzero;stroke:none"
         d="m 2243.32,1805.59 c 9.58,9.65 21.63,14.45 36.11,14.45 14.02,0 25.95,-4.8 35.68,-14.36 9.71,-9.57 14.59,-21.62 14.59,-35.92 0,-14.37 -4.88,-26.46 -14.68,-36.01 -9.79,-9.76 -21.68,-14.57 -35.59,-14.57 -14.03,0 -25.92,4.75 -35.64,14.37 -9.83,9.65 -14.8,21.77 -14.8,36.21 0,14.19 4.77,26.15 14.33,35.83 z m 35.83,-92.18 c 16.19,0 29.79,5.47 40.83,16.34 11.08,10.84 16.58,24.29 16.58,40.33 0,16.34 -5.54,29.86 -16.69,40.55 -10.85,10.41 -24.26,15.69 -40.25,15.69 -16.31,0 -29.95,-5.5 -40.91,-16.41 -10.95,-11.01 -16.43,-24.38 -16.43,-40.29 0,-16.27 5.36,-29.68 16.16,-40.33 10.78,-10.54 24.37,-15.88 40.71,-15.88" /><path
         id="path30"
         style="fill:#ffffff;fill-opacity:1;fill-rule:nonzero;stroke:none"
         d="m 859.23,1567.68 h 34.192 v 214.13 H 859.23 v -214.13" /><path
         id="path32"
         style="fill:#ffffff;fill-opacity:1;fill-rule:nonzero;stroke:none"
         d="m 1341.47,1736.86 c 12.78,13.92 29.87,20.89 51.18,20.89 21.61,0 38.41,-6.89 50.43,-20.67 12.34,-14.37 18.54,-35.29 18.54,-62.71 0,-26.18 -5.76,-46.37 -17.38,-60.67 -11.82,-14.59 -29.06,-21.92 -51.59,-21.92 -21.78,0 -39.13,7.21 -52.03,21.66 -12.98,14.37 -19.42,34.47 -19.42,60.11 0,27.31 6.75,48.38 20.27,63.31 z m 48.65,-174.31 c 32.57,0 58.53,10.32 77.83,30.94 19.16,20.56 28.8,47.95 28.8,82.08 0,34.7 -8.98,61.97 -26.8,81.81 -17.98,19.71 -42.92,29.66 -74.83,29.66 -32.46,0 -58.33,-9.52 -77.71,-28.41 -20.94,-20.4 -31.37,-49.15 -31.37,-86.36 0,-32.65 9.22,-58.91 27.58,-78.78 18.79,-20.62 44.35,-30.94 76.5,-30.94" /><path
         id="path34"
         style="fill:#ffffff;fill-opacity:1;fill-rule:nonzero;stroke:none"
         d="m 1735.75,1673.55 c 0,27.31 6.69,48.38 20.17,63.31 12.87,13.92 29.96,20.89 51.25,20.89 21.58,0 38.42,-6.89 50.4,-20.67 12.39,-14.37 18.59,-35.29 18.59,-62.71 0,-26.18 -5.77,-46.37 -17.38,-60.67 -11.82,-14.59 -29.03,-21.92 -51.61,-21.92 -21.72,0 -39.08,7.21 -52.13,21.66 -12.86,14.37 -19.29,34.47 -19.29,60.11 z m 146.68,-80.06 c 19.22,20.56 28.95,47.95 28.95,82.08 0,34.7 -9.07,61.97 -26.93,81.81 -17.94,19.71 -42.84,29.66 -74.75,29.66 -32.51,0 -58.46,-9.52 -77.78,-28.41 -20.84,-20.4 -31.35,-49.15 -31.35,-86.36 0,-32.65 9.23,-58.91 27.59,-78.78 18.78,-20.62 44.35,-30.94 76.54,-30.94 32.61,0 58.53,10.32 77.73,30.94" /><path
         id="path36"
         style="fill:#ffffff;fill-opacity:1;fill-rule:nonzero;stroke:none"
         d="m 1378.51,1040.76 h 283.95 v 83.31 h -283.95 v 261.5 h 306.46 v 83.31 H 1286.43 V 682.762 h 416.63 v 83.308 h -324.55 v 274.69" /><path
         id="path38"
         style="fill:#ffffff;fill-opacity:1;fill-rule:nonzero;stroke:none"
         d="m 1789.58,1385.57 h 226.88 V 682.762 h 92.11 V 1385.57 H 2335 v 83.31 h -545.42 v -83.31" /><path
         id="path40"
         style="fill:#ffffff;fill-opacity:1;fill-rule:nonzero;stroke:none"
         d="m 283.051,794.012 c -16.77,0 -31.031,-5.961 -42.727,-18.082 -11.738,-12.051 -17.543,-26.629 -17.543,-43.86 0,-16.781 5.805,-31.3 17.543,-43.55 11.696,-12.231 25.957,-18.391 42.727,-18.391 17.199,0 31.84,6.16 43.887,18.391 12.085,12.25 18.089,26.769 18.089,43.55 0,16.801 -6.004,31.379 -18.089,43.61 -12.047,12.289 -26.688,18.332 -43.887,18.332" /><path
         id="path42"
         style="fill:#ffffff;fill-opacity:1;fill-rule:nonzero;stroke:none"
         d="m 1217.28,1773.84 c -10.41,-8.52 -18.16,-20.53 -23.19,-36.18 h -0.86 v 44.15 h -34.24 v -214.13 h 34.24 v 109.2 c 0,24.83 5.35,44.25 16.11,58.3 9.49,12.53 21.19,18.78 35.1,18.78 11.46,0 20.14,-2.25 26.18,-6.88 v 35.55 c -4.64,1.93 -11.42,2.9 -20.52,2.9 -12.13,0 -23.09,-3.9 -32.82,-11.69" /><path
         id="path44"
         style="fill:#ffffff;fill-opacity:1;fill-rule:nonzero;stroke:none"
         d="m 511.66,1827.14 h 0.746 l 111.387,-259.46 h 17.16 l 111.215,259.46 h 0.812 l -2.945,-259.46 h 35.168 V 1867.5 H 741.168 L 632.859,1622.53 h -1.468 l -105.59,244.97 h -46.406 v -299.82 h 33.894 l -1.629,259.46" /><path
         id="path46"
         style="fill:#ffffff;fill-opacity:1;fill-rule:nonzero;stroke:none"
         d="M 1020.79,804.941 598.742,1468.88 H 479.164 V 682.762 h 92.145 V 1357.05 L 1000.57,682.762 h 111.78 v 786.118 h -91.56 V 804.941" /></g></g></svg>