<?xml version="1.0" encoding="UTF-8" standalone="no"?><!-- Generator: Gravit.io --><svg xmlns="http://www.w3.org/2000/svg" xmlns:xlink="http://www.w3.org/1999/xlink" style="isolation:isolate" viewBox="0 0 341.24 341.24" width="341.24pt" height="341.24pt"><defs><clipPath id="_clipPath_1XBXT0oscM5YMmpOYEHG6eN0zCW78G6Y"><rect width="341.24" height="341.24"/></clipPath></defs><g clip-path="url(#_clipPath_1XBXT0oscM5YMmpOYEHG6eN0zCW78G6Y)"><g><path d=" M 341.247 341.24 L 0 341.24 L 0 -0.007 L 341.247 -0.007 L 341.247 341.24 Z " fill="rgb(95,36,123)"/><path d=" M 185.652 174.953 L 228.489 174.953 L 228.489 162.385 L 185.652 162.385 L 185.652 122.935 L 231.885 122.935 L 231.885 110.367 L 171.761 110.367 L 171.761 228.961 L 234.614 228.961 L 234.614 216.393 L 185.652 216.393 L 185.652 174.953 Z " fill="rgb(255,255,255)"/><path d=" M 247.666 122.935 L 281.894 122.935 L 281.894 228.961 L 295.789 228.961 L 295.789 122.935 L 329.949 122.935 L 329.949 110.367 L 247.666 110.367 L 247.666 122.935 Z " fill="rgb(255,255,255)"/><path d=" M 20.39 212.178 C 17.86 212.178 15.709 213.077 13.944 214.906 C 12.174 216.724 11.298 218.923 11.298 221.522 C 11.298 224.054 12.174 226.244 13.944 228.092 C 15.709 229.937 17.86 230.867 20.39 230.867 C 22.985 230.867 25.194 229.937 27.011 228.092 C 28.834 226.244 29.74 224.054 29.74 221.522 C 29.74 218.988 28.834 216.788 27.011 214.943 C 25.194 213.089 22.985 212.178 20.39 212.178 Z " fill="rgb(255,255,255)"/><path d=" M 131.686 210.529 L 68.016 110.367 L 49.976 110.367 L 49.976 228.961 L 63.877 228.961 L 63.877 127.237 L 128.636 228.961 L 145.499 228.961 L 145.499 110.367 L 131.686 110.367 L 131.686 210.529" fill="rgb(255,255,255)"/></g></g></svg>