<?xml version="1.0" encoding="utf-8"?>
<!-- Generator: Adobe Illustrator 19.0.0, SVG Export Plug-In . SVG Version: 6.00 Build 0)  -->
<svg version="1.1" id="Warstwa_1" xmlns="http://www.w3.org/2000/svg" xmlns:xlink="http://www.w3.org/1999/xlink" x="0px" y="0px"
	 viewBox="217 -143 581.6 351" style="enable-background:new 217 -143 581.6 351;" xml:space="preserve">
<style type="text/css">
	.st0{fill:#FFFFFF;}
</style>
<path class="st0" d="M786.6,208H229c-6.6,0-12-5.4-12-12v-327c0-6.6,5.4-12,12-12h557.6c6.6,0,12,5.4,12,12v327
	C798.6,202.6,793.2,208,786.6,208z"/>
<g>
	<path d="M378.1-47.4h96.6v7.7H387V18h82.5v7.7H387v63.4h88.7v7.7h-97.6V-47.4z M483.4-47.4h10.3L539.1,16l46.5-63.4l63.2-80.6
		L544.9,22.6l53.5,74.1h-10.7l-48.7-67.5l-48.9,67.5h-10.5l53.9-74.1L483.4-47.4z M602.3-39.8v-7.7h110v7.7h-50.7V96.8h-8.9V-39.8
		H602.3z M257.3-47.4h11.1L421,180.9l-63.1-84.1L266.6-36.5l-0.4,133.3h-8.9V-47.4z M711.4,86.8c-1.8,0-3.2-1.4-3.2-3.2
		s1.4-3.2,3.2-3.2c1.8,0,3.2,1.4,3.2,3.2S713.3,86.8,711.4,86.8z M720.1,78.3h4.7c0.1,2.6,1.9,4.3,4.7,4.3c3.1,0,4.8-1.9,4.8-5.3
		v-22h4.8v22c0,6.3-3.6,9.9-9.6,9.9C724,87.2,720.1,83.7,720.1,78.3z M745.5,78.1h4.8c0.4,3,3.3,4.8,7.4,4.8c3.9,0,6.7-2,6.7-4.8
		c0-2.4-1.8-3.8-5.9-4.8l-4-1c-5.6-1.3-8.2-4-8.2-8.6c0-5.5,4.5-9.2,11.3-9.2c6.3,0,10.9,3.7,11.2,8.9h-4.7
		c-0.5-2.9-2.9-4.7-6.6-4.7c-3.8,0-6.4,1.8-6.4,4.6c0,2.2,1.6,3.5,5.7,4.4l3.4,0.8c6.4,1.5,9,4.1,9,8.8c0,6-4.6,9.7-12,9.7
		C750.5,87.2,745.8,83.6,745.5,78.1z"/>
</g>
</svg>
