<?xml version="1.0" encoding="utf-8"?>
<!-- Generator: Adobe Illustrator 19.0.0, SVG Export Plug-In . SVG Version: 6.00 Build 0)  -->
<svg version="1.1" id="Warstwa_1" xmlns="http://www.w3.org/2000/svg" xmlns:xlink="http://www.w3.org/1999/xlink" x="0px" y="0px"
	 viewBox="105 -97 287.8 217" style="enable-background:new 105 -97 287.8 217;" xml:space="preserve">
<style type="text/css">
	.st0{fill:#FFFFFF;}
	.st1{fill:#231F20;}
</style>
<path class="st0" d="M380.8,120H117c-6.6,0-12-5.4-12-12V-85c0-6.6,5.4-12,12-12h263.8c6.6,0,12,5.4,12,12v193
	C392.8,114.6,387.4,120,380.8,120z"/>
<g>
	<path class="st1" d="M315.6,60.1h31.8v-76.3L311.5-52L289-29.5L315.6-3V60.1L315.6,60.1z M347.4,76h-46.3h-64.6L210,49.5l11.2-11.2
		l21.9,21.9h45l-44.4-44.4L255,4.5l44.4,44.4v-45l-21.6-22L289-29.3l-55.1-55.3h-54.3l0,0h-56.3L155-52.9v0.1h0.2h65.6L244-29.6
		l-34,34l-23.4-23.2v-18h-31.8v31.2l55,55l-22.4,22.4l35.8,35.8h54.3H379l0,0L347.4,76L347.4,76z"/>
</g>
</svg>
