<?xml version="1.0" encoding="UTF-8" standalone="no"?>
<svg
   xmlns:dc="http://purl.org/dc/elements/1.1/"
   xmlns:cc="http://creativecommons.org/ns#"
   xmlns:rdf="http://www.w3.org/1999/02/22-rdf-syntax-ns#"
   xmlns:svg="http://www.w3.org/2000/svg"
   xmlns="http://www.w3.org/2000/svg"
   viewBox="0 0 773.33331 773.34668"
   height="773.34668"
   width="773.33331"
   xml:space="preserve"
   id="svg2"
   version="1.1"><metadata
     id="metadata8"><rdf:RDF><cc:Work
         rdf:about=""><dc:format>image/svg+xml</dc:format><dc:type
           rdf:resource="http://purl.org/dc/dcmitype/StillImage" /></cc:Work></rdf:RDF></metadata><defs
     id="defs6" /><g
     transform="matrix(1.3333333,0,0,-1.3333333,0,773.34667)"
     id="g10"><g
       transform="scale(0.1)"
       id="g12"><path
         id="path14"
         style="fill:#2d73a0;fill-opacity:1;fill-rule:nonzero;stroke:none"
         d="m 412.23,2900.16 c 0,-984.82 572.282,-1835.77 1402.13,-2239.109 L 627.613,3912.62 C 489.57,3603.21 412.23,3260.79 412.23,2900.16" /><path
         id="path16"
         style="fill:#2d73a0;fill-opacity:1;fill-rule:nonzero;stroke:none"
         d="m 4579.55,3025.67 c 0,307.47 -110.44,520.4 -205.21,686.13 -126.05,204.93 -244.23,378.48 -244.23,583.41 0,228.7 173.41,441.58 417.7,441.58 11.04,0 21.48,-1.39 32.3,-1.99 -442.7,405.48 -1032.38,653.08 -1680.06,653.08 -869.16,0 -1633.79,-445.93 -2078.648,-1121.38 58.399,-1.75 113.457,-2.91 160.098,-2.91 260.21,0 663.07,31.57 663.07,31.57 134.11,7.91 149.92,-189.08 16,-204.93 0,0 -134.84,-15.86 -284.81,-23.72 l 906,-2694.75 544.48,1632.88 -387.7,1061.92 c -133.97,7.87 -260.88,23.72 -260.88,23.72 -134.06,7.86 -118.35,212.84 15.72,204.93 0,0 410.84,-31.57 655.3,-31.57 260.18,0 663.01,31.57 663.01,31.57 134.21,7.91 149.97,-189.07 15.96,-204.93 0,0 -135.04,-15.85 -284.73,-23.72 l 899.06,-2674.36 248.07,829.22 c 107.63,344.13 189.5,591.28 189.5,804.25" /><path
         id="path18"
         style="fill:#2d73a0;fill-opacity:1;fill-rule:nonzero;stroke:none"
         d="M 2943.69,2682.51 2197.26,513.57 c 222.87,-65.609 458.55,-101.429 702.78,-101.429 289.72,0 567.55,50.16 826.16,141.05 -6.76,10.618 -12.81,21.938 -17.71,34.25 l -764.8,2095.069" /><path
         id="path20"
         style="fill:#2d73a0;fill-opacity:1;fill-rule:nonzero;stroke:none"
         d="m 5083.03,4093.75 c 10.68,-79.24 16.74,-164.39 16.74,-255.83 0,-252.46 -47.15,-536.26 -189.17,-891.11 L 4150.7,749.691 C 4890.32,1181 5387.79,1982.29 5387.79,2900.16 c 0.03,432.47 -110.46,839.2 -304.76,1193.59" /><path
         id="path22"
         style="fill:#2d73a0;fill-opacity:1;fill-rule:nonzero;stroke:none"
         d="m 2900.05,132.969 c -1525.7,0 -2767.089,1241.371 -2767.089,2767.191 0,1525.65 1241.299,2766.91 2767.089,2766.91 C 4425.74,5667.07 5667,4425.82 5667,2900.16 5667,1374.32 4425.7,132.969 2900.05,132.969 Z m 0,5667.141 C 1300.98,5800.11 0,4499.17 0,2900.15 0,1300.9 1300.93,-0.0390625 2900.05,-0.0390625 4499.06,-0.0390625 5800.25,1300.86 5800.25,2900.15 5800.2,4499.18 4499.06,5800.11 2900.05,5800.11" /></g></g></svg>