<?xml version="1.0" encoding="utf-8"?>
<!-- Generator: Adobe Illustrator 19.0.0, SVG Export Plug-In . SVG Version: 6.00 Build 0)  -->
<svg version="1.1" id="Warstwa_1" xmlns="http://www.w3.org/2000/svg" xmlns:xlink="http://www.w3.org/1999/xlink" x="0px" y="0px"
	 viewBox="0 0 142.1 26.9" style="enable-background:new 0 0 142.1 26.9;" xml:space="preserve">
<style type="text/css">
	.st0{fill:#FFFFFF;}
	.st1{fill:#FF6057;}
</style>
<g id="XMLID_11_">
	<path id="XMLID_17_" class="st0" d="M3.8,21.2H1.7V8.3h2l0.1,1h0.1c0.8-0.4,1.5-0.7,2.1-0.9C6.6,8.1,7.2,8,7.8,8
		c0.7,0,1.4,0.1,1.9,0.3c0.5,0.2,0.9,0.6,1.2,1H11c0.7-0.4,1.4-0.8,2.2-1C13.9,8.2,14.7,8,15.5,8c1.2,0,2.2,0.3,2.8,1
		s0.9,1.6,0.9,2.9v9.3h-2.1v-9c0-0.7-0.2-1.3-0.6-1.7c-0.4-0.4-1-0.5-1.9-0.5c-0.5,0-1,0.1-1.5,0.2c-0.5,0.1-1.1,0.4-1.6,0.6
		c0,0.2,0.1,0.3,0.1,0.5s0,0.4,0,0.5v9.3H9.4v-9c0-0.7-0.2-1.3-0.6-1.7c-0.4-0.4-1-0.5-1.9-0.5C6.5,10,6,10,5.5,10.2
		c-0.5,0.1-1,0.4-1.7,0.7V21.2z"/>
	<path id="XMLID_19_" class="st0" d="M24.7,15.6v5.6h-2.1V3.9h2.1v9.9h1.5l4.5-5.4h2.6L28,14.5l5.6,6.6h-2.7l-4.6-5.6H24.7z"/>
	<path id="XMLID_21_" class="st0" d="M39.5,21.4c-1.4,0-2.5-0.4-3.2-1.1s-1.1-1.8-1.1-3.2V8.3h2.1v8.5c0,0.9,0.2,1.5,0.7,1.9
		c0.5,0.4,1.2,0.6,2.1,0.6c0.6,0,1.2-0.1,1.8-0.2s1.2-0.4,1.8-0.7V8.3h2.1v12.8h-2l-0.1-1.1h-0.1c-0.9,0.5-1.7,0.8-2.3,1
		C40.8,21.3,40.2,21.4,39.5,21.4z"/>
	<path id="XMLID_23_" class="st0" d="M51.5,21.2h-2.1V8.3h2l0.1,1.1h0.1c0.7-0.4,1.4-0.7,2-0.9c0.7-0.2,1.3-0.3,2-0.3
		c0.3,0,0.5,0,0.6,0c0.1,0,0.2,0,0.2,0v2.1c-0.1,0-0.3-0.1-0.5-0.1c-0.2,0-0.5,0-0.8,0c-0.6,0-1.2,0.1-1.8,0.2
		c-0.6,0.1-1.2,0.4-1.7,0.7V21.2z"/>
	<path id="XMLID_25_" class="st0" d="M64.9,8c1.8,0,3,0.5,3.8,1.5c0.8,1,1.1,2.7,1.1,5.1c0,2.4-0.5,4.1-1.4,5.1
		c-0.9,1-2.5,1.6-4.7,1.6c-1,0-1.9-0.1-2.8-0.2c-0.9-0.1-1.7-0.3-2.4-0.5V3.9h2.1v5.3c0.6-0.4,1.3-0.6,2-0.8C63.4,8.1,64.1,8,64.9,8
		z M67.7,14.7c0-1.8-0.2-3-0.7-3.7s-1.4-1-2.8-1c-0.6,0-1.2,0.1-1.8,0.2c-0.6,0.2-1.2,0.4-1.6,0.7V19c0.4,0.1,0.8,0.2,1.3,0.2
		s1,0.1,1.6,0.1c1.6,0,2.7-0.3,3.3-1C67.4,17.7,67.7,16.5,67.7,14.7z"/>
	<path id="XMLID_28_" class="st0" d="M75.5,21.4c-1.3,0-2.3-0.3-2.9-0.9c-0.6-0.6-0.9-1.6-0.9-3c0-1.4,0.4-2.4,1.1-3s2-0.9,3.8-0.9
		c0.6,0,1.2,0,1.7,0.1c0.6,0.1,1.1,0.1,1.6,0.2v-1.2c0-1-0.2-1.6-0.7-2.1S78,10,76.9,10c-0.8,0-1.5,0-2.1,0.1
		c-0.6,0.1-1.2,0.2-1.8,0.3V8.5c0.7-0.2,1.4-0.3,2.1-0.4C75.8,8.1,76.6,8,77.5,8c1.5,0,2.7,0.4,3.4,1.1s1.1,1.8,1.1,3.3v8.7h-2
		L80,20H80c-0.5,0.4-1.2,0.8-2,1S76.3,21.4,75.5,21.4z M76.8,15.3c-1.2,0-2,0.1-2.5,0.4c-0.5,0.3-0.7,0.8-0.7,1.5
		c0,0.8,0.2,1.3,0.6,1.7c0.4,0.3,1,0.5,1.9,0.5c0.7,0,1.4-0.1,2.1-0.3s1.3-0.5,1.7-0.8v-2.8c-0.6-0.1-1.1-0.2-1.6-0.2
		C77.9,15.3,77.3,15.3,76.8,15.3z"/>
	<path id="XMLID_31_" class="st0" d="M87.5,21.2h-2.1V8.3h1.8l0.1,1.2h0.1c0.7-0.5,1.4-0.9,2.2-1.1C90.4,8.2,91.2,8,92.1,8
		c1.4,0,2.5,0.4,3.2,1.1c0.7,0.7,1.1,1.8,1.1,3.1v8.9h-2.1v-8.6c0-0.9-0.2-1.5-0.7-1.9S92.4,10,91.4,10c-0.6,0-1.3,0.1-1.9,0.3
		c-0.7,0.2-1.3,0.5-1.9,0.9V21.2z"/>
	<path id="XMLID_33_" class="st1" d="M101.4,21.2h-2.1V19h2.1V21.2z"/>
	<path id="XMLID_35_" class="st1" d="M112.8,3.9h2.1v17.3h-1.8L113,20h-0.1c-0.5,0.5-1.1,0.8-1.8,1.1c-0.7,0.2-1.5,0.4-2.5,0.4
		c-1.8,0-3-0.5-3.8-1.6s-1.1-2.7-1.1-5.1c0-2.4,0.5-4.1,1.4-5.1s2.5-1.6,4.6-1.6c0.6,0,1.2,0,1.7,0.1c0.5,0.1,1,0.2,1.4,0.4V3.9z
		 M110,10c-1.6,0-2.7,0.3-3.3,1c-0.6,0.7-0.8,1.9-0.8,3.7c0,1.8,0.2,3,0.7,3.7c0.5,0.7,1.4,1,2.8,1c0.6,0,1.3-0.1,1.8-0.2
		c0.6-0.2,1.1-0.4,1.6-0.7v-7.9c-0.4-0.2-0.9-0.3-1.3-0.4C111,10,110.5,10,110,10z"/>
	<path id="XMLID_38_" class="st1" d="M128,18.7v1.8c-0.5,0.2-1.1,0.5-2,0.6c-0.9,0.2-1.8,0.3-2.7,0.3c-2,0-3.4-0.5-4.3-1.6
		c-0.9-1-1.3-2.8-1.3-5.1c0-2.3,0.5-4,1.4-5c0.9-1,2.3-1.6,4.3-1.6c1.8,0,3.2,0.4,4,1.2c0.8,0.8,1.2,2.2,1.2,4.1c0,0.3,0,0.7,0,1
		c0,0.3-0.1,0.6-0.1,1.1h-8.5c0,1.4,0.3,2.4,0.9,3c0.6,0.6,1.5,0.9,2.9,0.9c0.7,0,1.5-0.1,2.3-0.2S127.5,18.9,128,18.7z M126.6,13.1
		c0-1.1-0.3-2-0.8-2.4s-1.3-0.7-2.4-0.7c-1.3,0-2.2,0.3-2.7,0.8c-0.5,0.5-0.8,1.5-0.8,2.9h6.7c0,0,0-0.1,0-0.2
		C126.6,13.3,126.6,13.2,126.6,13.1z"/>
	<path id="XMLID_41_" class="st1" d="M139.7,8.3h2.3l-4.9,12.8h-2.4l-4.9-12.8h2.4l3.8,10.9L139.7,8.3z"/>
</g>
<g id="XMLID_8_">
</g>
<g id="XMLID_16_">
</g>
<g id="XMLID_43_">
</g>
<g id="XMLID_44_">
</g>
<g id="XMLID_45_">
</g>
<g id="XMLID_46_">
</g>
<g id="XMLID_47_">
</g>
<g id="XMLID_48_">
</g>
<g id="XMLID_49_">
</g>
<g id="XMLID_50_">
</g>
<g id="XMLID_51_">
</g>
<g id="XMLID_52_">
</g>
<g id="XMLID_53_">
</g>
<g id="XMLID_54_">
</g>
<g id="XMLID_55_">
</g>
<g id="XMLID_56_">
</g>
</svg>
