<?xml version="1.0" encoding="utf-8"?>
<!-- Generator: Adobe Illustrator 19.0.0, SVG Export Plug-In . SVG Version: 6.00 Build 0)  -->
<svg version="1.1" id="Warstwa_1" xmlns="http://www.w3.org/2000/svg" xmlns:xlink="http://www.w3.org/1999/xlink" x="0px" y="0px"
	 viewBox="6 25 511 511" style="enable-background:new 6 25 511 511;" xml:space="preserve">
<style type="text/css">
	.st0{fill:#41ADFF;}
</style>
<path class="st0" d="M80.8,414.2H47.2c-17.1,0-30.9,13.9-30.9,30.9v51.3c0,17.1,13.9,30.9,30.9,30.9h33.6
	c17.1,0,30.9-13.9,30.9-30.9v-51.3C111.8,428.1,97.9,414.2,80.8,414.2z M97.1,496.4c0,9-7.2,16.2-16.2,16.2H47.2
	c-9,0-16.2-7.2-16.2-16.2v-51.3c0-9,7.2-16.2,16.2-16.2h33.6c9,0,16.2,7.2,16.2,16.2L97.1,496.4L97.1,496.4z"/>
<path class="st0" d="M326.4,287.2h-33.6c-17.1,0-30.9,13.9-30.9,30.9v178.4c0,17.1,13.9,30.9,30.9,30.9h33.6
	c17.1,0,30.9-13.9,30.9-30.9V318.1C357.3,301,343.4,287.2,326.4,287.2z M342.6,496.4c0,9-7.2,16.2-16.2,16.2h-33.6
	c-9,0-16.2-7.2-16.2-16.2V318.1c0-9,7.2-16.2,16.2-16.2h33.6c9,0,16.2,7.2,16.2,16.2V496.4z"/>
<path class="st0" d="M506.1,143.5l-51.8-89.9c-4.6-7.9-12.8-12.6-22-12.6s-17.3,4.7-21.9,12.6l-51.8,89.9c-4.5,7.9-4.5,17.4,0,25.3
	c4.5,7.9,12.7,12.6,21.9,12.6h4.2v315c0,17.1,13.9,30.9,30.9,30.9h33.6c17.1,0,30.9-13.9,30.9-30.9V181.3h4.2
	c9.2,0,17.3-4.7,21.9-12.6C510.7,160.8,510.7,151.3,506.1,143.5z M493.4,161.4c-1.9,3.3-5.3,5.3-9.2,5.3h-11.5
	c-4.1,0-7.3,3.3-7.3,7.3v322.4c0,9-7.2,16.2-16.2,16.2h-33.6c-9,0-16.2-7.2-16.2-16.2V174c0-4.1-3.3-7.3-7.3-7.3h-11.5
	c-3.9,0-7.2-1.9-9.2-5.3c-1.9-3.3-1.9-7.2,0-10.5L423.2,61c1.9-3.3,5.3-5.3,9.2-5.3c3.9,0,7.2,1.9,9.2,5.3l51.8,89.9
	C495.3,154.1,495.3,158.1,493.4,161.4z"/>
<path class="st0" d="M203.6,357.1H170c-17.1,0-30.9,13.9-30.9,30.9v108.4c0,17.1,13.9,30.9,30.9,30.9h33.6
	c17.1,0,30.9-13.9,30.9-30.9V388C234.5,371,220.6,357.1,203.6,357.1z M219.9,496.4c0,9-7.2,16.2-16.2,16.2h-33.6
	c-9,0-16.2-7.2-16.2-16.2V388c0-9,7.2-16.2,16.2-16.2h33.5c9,0,16.2,7.2,16.2,16.2L219.9,496.4L219.9,496.4z"/>
</svg>
