<?xml version="1.0" encoding="utf-8"?>
<!-- Generator: Adobe Illustrator 19.0.0, SVG Export Plug-In . SVG Version: 6.00 Build 0)  -->
<svg version="1.1" id="Capa_1" xmlns="http://www.w3.org/2000/svg" xmlns:xlink="http://www.w3.org/1999/xlink" x="0px" y="0px"
	 viewBox="11 -11.5 522.5 522.5" style="enable-background:new 11 -11.5 522.5 522.5;" xml:space="preserve">
<style type="text/css">
	.st0{fill:#FF6057;}
</style>
<g>
	<g>
		<path class="st0" d="M304.7,158.4l-9-2.5c-1.2-0.4-2.3-0.3-3.4,0.4c-1.1,0.6-1.9,1.6-2.2,2.8l-53.9,186.4
			c-0.4,1.3-0.3,2.4,0.4,3.5c0.6,1.1,1.6,1.9,2.8,2.2l9,2.5c1.2,0.4,2.3,0.3,3.4-0.4c1.1-0.6,1.9-1.6,2.2-2.8l53.9-186.4
			c0.4-1.3,0.3-2.4-0.4-3.5C306.9,159.5,306,158.8,304.7,158.4z"/>
		<path class="st0" d="M224,194.8c0-1.3-0.5-2.4-1.4-3.3l-7.2-7.2c-1-1-2.1-1.4-3.3-1.4s-2.4,0.5-3.3,1.4l-67.3,67.3
			c-1,1-1.4,2.1-1.4,3.3s0.5,2.4,1.4,3.3l67.3,67.3c1,1,2.1,1.4,3.3,1.4c1.3,0,2.4-0.5,3.3-1.4l7.2-7.2c1-1,1.4-2.1,1.4-3.3
			c0-1.2-0.5-2.4-1.4-3.3l-56.7-56.7l56.7-56.7C223.5,197.1,224,196,224,194.8z"/>
		<path class="st0" d="M402.7,251.5l-67.3-67.3c-1-1-2.1-1.4-3.3-1.4c-1.3,0-2.4,0.5-3.3,1.4l-7.2,7.2c-1,1-1.4,2.1-1.4,3.3
			c0,1.3,0.5,2.4,1.4,3.3l56.7,56.7l-56.7,56.7c-1,1-1.4,2.1-1.4,3.3c0,1.3,0.5,2.4,1.4,3.3l7.2,7.2c1,1,2.1,1.4,3.3,1.4
			c1.2,0,2.4-0.5,3.3-1.4l67.3-67.3c1-1,1.4-2.1,1.4-3.3C404.2,253.6,403.7,252.5,402.7,251.5z"/>
	</g>
</g>
<g>
	<path class="st0" d="M523.9,160c-7.4-81.2-64.8-140.1-136.8-140.1c-47.9,0-91.8,25.8-116.5,67.1C246.2,45.2,204.2,19.9,157,19.9
		C85.1,19.9,27.6,78.8,20.3,160c-0.6,3.6-3,22.5,4.3,53.2C35,257.6,59.2,298,94.5,330l176,159.8L449.6,330
		c35.3-32,59.5-72.4,70-116.8C526.9,182.5,524.5,163.6,523.9,160z M500.7,208.8c-9.6,40.5-31.7,77.5-64,106.8L270.7,463.6
		l-163.1-148c-32.4-29.3-54.5-66.3-64.1-106.8c-6.9-29.1-4.1-45.6-4-45.7l0.1-1C45.9,91,95.3,39.3,157,39.3c45.5,0,85.6,28,104.7,73
		l9,21.2l9-21.2c18.7-44.4,60.9-73,107.6-73c61.7,0,111.1,51.6,117.6,123.7C504.7,163.2,507.6,179.7,500.7,208.8z"/>
</g>
</svg>
