<?xml version="1.0" encoding="utf-8"?>
<!-- Generator: Adobe Illustrator 19.0.0, SVG Export Plug-In . SVG Version: 6.00 Build 0)  -->
<svg version="1.1" id="Capa_1" xmlns="http://www.w3.org/2000/svg" xmlns:xlink="http://www.w3.org/1999/xlink" x="0px" y="0px"
	 viewBox="6 -6 512 512" style="enable-background:new 6 -6 512 512;" xml:space="preserve">
<style type="text/css">
	.st0{fill:#29CD41;}
</style>
<g>
	<g>
		<path class="st0" d="M274.7,237.4c-3.9-3.9-10.2-3.9-14.1,0c-3.9,3.9-3.9,10.2,0,14.1c3.9,3.9,10.2,3.9,14.1,0
			C278.6,247.6,278.6,241.3,274.7,237.4z"/>
	</g>
</g>
<g>
	<g>
		<path class="st0" d="M401.9,110.1c-19.5-19.5-51.2-19.5-70.7,0c-19.5,19.5-19.5,51.2,0,70.7c19.5,19.5,51.2,19.5,70.7,0
			C421.5,161.2,421.5,129.6,401.9,110.1z M387.8,166.6c-11.7,11.7-30.7,11.7-42.4,0c-11.7-11.7-11.7-30.7,0-42.4
			c11.7-11.7,30.7-11.7,42.4,0C399.5,135.9,399.5,154.9,387.8,166.6z"/>
	</g>
</g>
<g>
	<g>
		<path class="st0" d="M515.1-3.1c-2-2-4.6-3-7.4-2.9c-2.3,0.1-56.1,2.2-120.1,24.9c-51.3,18.1-94,44-127,77
			c-7.4,7.4-14.6,15.2-21.5,23.4c-32.6-19.2-58.8-13.2-75.3-4.3c-38.1,20.4-61.7,75.7-61.7,115.3c0,4,2.4,7.7,6.2,9.2
			c1.2,0.5,2.5,0.8,3.8,0.8c2.6,0,5.2-1,7.1-2.9c20.1-20.1,44.9-18.8,52.9-17.8l3.5,3.5c-6.9,16.4-12.4,32.7-16.5,48.6
			c-1.5,5.7-1,11.8,1.2,17.4c-9.6,4.4-18.9,11-27,19c-25.7,25.7-31,88.5-31.2,91.1c-0.2,2.9,0.8,5.8,2.9,7.9
			c1.9,1.9,4.4,2.9,7.1,2.9c0.3,0,0.5,0,0.8,0c2.7-0.2,65.4-5.4,91.1-31.2c8.1-8.1,14.6-17.4,19-27c5.9,2.3,11.9,2.6,17.4,1.2
			c15.9-4.1,32.2-9.6,48.6-16.5l3.5,3.5c1.1,8.1,2.3,32.9-17.8,52.9c-2.9,2.9-3.7,7.2-2.2,10.9c1.5,3.7,5.2,6.2,9.2,6.2
			c39.6,0,94.9-23.6,115.3-61.7c8.9-16.5,14.9-42.7-4.3-75.3c8.1-6.9,16-14.1,23.4-21.5c33-33,58.9-75.8,77-127
			C515.7,60.5,517.9,6.6,518,4.4C518.1,1.6,517-1.1,515.1-3.1z M124.4,208.8c6.2-30.1,24.3-63.1,48.7-76.2
			c16.4-8.8,34.2-7.9,53.3,2.5c-16.2,21.3-30.3,44.3-42,68.5c-0.1-0.1-1.9-2.4-5.3-3.1C177.7,200.2,151.2,194.5,124.4,208.8z
			 M189.8,364.6c-13.8,13.8-46,21-66.4,24c3-20.4,10.2-52.6,24-66.4c7.7-7.7,16.6-13.5,25.6-16.8l33.7,33.7
			C203.3,348,197.5,356.9,189.8,364.6z M235.4,333.6c-2.9,0.7-6.2-0.3-8.7-2.8c-12.9-12.9-18-18-19.6-19.6
			c-2.9-2.9-10.1-10.1-25.8-25.8c-2.5-2.5-3.6-5.9-2.8-8.7c3.2-12.5,7.4-25.3,12.5-38.2l82.7,82.7
			C260.7,326.2,247.9,330.4,235.4,333.6z M379.4,338.9c-13.1,24.5-46.1,42.5-76.2,48.7c9.6-18,11.7-41,8.2-54.9
			c-0.8-3.2-2.9-4.9-3-5.1c24.2-11.7,47.2-25.8,68.5-42C387.3,304.7,388.1,322.5,379.4,338.9z M401.9,237.3
			c-9,9-18.7,17.7-28.8,25.9c-24.3,19.6-51.1,36.2-79.7,49.4l-94-94c13.2-28.6,29.8-55.4,49.4-79.7c8.2-10.1,16.9-19.8,25.9-28.8
			c29.6-29.6,67.9-53.2,113.7-70.2l83.8,83.8C455.1,169.5,431.6,207.7,401.9,237.3z M479.3,102.6l-69.9-69.9
			c38.1-11.8,71.2-16.3,87.7-17.8C495.6,31.4,491.1,64.5,479.3,102.6z"/>
	</g>
</g>
<g>
	<g>
		<path class="st0" d="M246.4,407c-3.9-3.9-10.2-3.9-14.1,0l-28.3,28.3c-3.9,3.9-3.9,10.2,0,14.1c3.9,3.9,10.2,3.9,14.1,0l28.3-28.3
			C250.3,417.3,250.3,411,246.4,407z"/>
	</g>
</g>
<g>
	<g>
		<path class="st0" d="M105,265.6c-3.9-3.9-10.2-3.9-14.1,0l-28.3,28.3c-3.9,3.9-3.9,10.2,0,14.1c3.9,3.9,10.2,3.9,14.1,0l28.3-28.3
			C108.9,275.9,108.9,269.5,105,265.6z"/>
	</g>
</g>
<g>
	<g>
		<path class="st0" d="M175.7,421.2c-3.9-3.9-10.2-3.9-14.1,0l-67.7,67.7c-3.9,3.9-3.9,10.2,0,14.1c3.9,3.9,10.2,3.9,14.1,0
			l67.7-67.7C179.6,431.4,179.6,425.1,175.7,421.2z"/>
	</g>
</g>
<g>
	<g>
		<path class="st0" d="M95.7,421.2c-3.9-3.9-10.2-3.9-14.1,0l-67.7,67.7c-3.9,3.9-3.9,10.2,0,14.1c3.9,3.9,10.2,3.9,14.1,0
			l67.7-67.7C99.6,431.4,99.6,425.1,95.7,421.2z"/>
	</g>
</g>
<g>
	<g>
		<path class="st0" d="M90.8,336.3c-3.9-3.9-10.2-3.9-14.1,0L8.9,404.1C5,408,5,414.3,8.9,418.2c3.9,3.9,10.2,3.9,14.1,0l67.7-67.7
			C94.7,346.6,94.7,340.2,90.8,336.3z"/>
	</g>
</g>
<g>
	<g>
		<path class="st0" d="M317.1,194.9c-3.9-3.9-10.2-3.9-14.1,0l-14.1,14.1c-3.9,3.9-3.9,10.2,0,14.1c3.9,3.9,10.2,3.9,14.1,0
			l14.1-14.1C321,205.2,321,198.8,317.1,194.9z"/>
	</g>
</g>
</svg>
